<svg width="32" height="32" viewBox="0 0 32 32" fill="none" xmlns="http://www.w3.org/2000/svg">
  <defs>
    <linearGradient id="favGradient" x1="0%" y1="0%" x2="100%" y2="100%">
      <stop offset="0%" stop-color="#7c3aed"/>
      <stop offset="100%" stop-color="#22d3ee"/>
    </linearGradient>
  </defs>
  
  <!-- Background -->
  <rect width="32" height="32" rx="8" fill="#08080c"/>
  
  <!-- Price tag -->
  <path d="M8 11L16 7L24 11V21C24 22.1 23.1 23 22 23H10C8.9 23 8 22.1 8 21V11Z" 
        fill="url(#favGradient)"/>
  
  <!-- Dollar sign -->
  <path d="M16 11V12.5M16 19.5V21M13.5 13.5C13.5 12.4 14.6 11.5 16 11.5C17.4 11.5 18.5 12.4 18.5 13.5C18.5 14.6 17.4 15.5 16 15.5C14.6 15.5 13.5 16.4 13.5 17.5C13.5 18.6 14.6 19.5 16 19.5C17.4 19.5 18.5 18.6 18.5 17.5" 
        stroke="white" stroke-width="1.5" stroke-linecap="round" fill="none"/>
</svg>
