<svg width="40" height="40" viewBox="0 0 40 40" fill="none" xmlns="http://www.w3.org/2000/svg">
  <!-- Background circle with gradient -->
  <defs>
    <linearGradient id="logoGradient" x1="0%" y1="0%" x2="100%" y2="100%">
      <stop offset="0%" stop-color="#7c3aed"/>
      <stop offset="100%" stop-color="#22d3ee"/>
    </linearGradient>
    <linearGradient id="iconGradient" x1="0%" y1="0%" x2="100%" y2="100%">
      <stop offset="0%" stop-color="#ffffff"/>
      <stop offset="100%" stop-color="#e0e0e0"/>
    </linearGradient>
  </defs>
  
  <!-- Outer ring -->
  <circle cx="20" cy="20" r="18" stroke="url(#logoGradient)" stroke-width="2" fill="none" opacity="0.3"/>
  
  <!-- Price tag shape -->
  <path d="M12 14L20 10L28 14V24C28 25.1 27.1 26 26 26H14C12.9 26 12 25.1 12 24V14Z" 
        fill="url(#logoGradient)" opacity="0.9"/>
  
  <!-- Dollar sign -->
  <path d="M20 15V16.5M20 23.5V25M17.5 17.5C17.5 16.4 18.6 15.5 20 15.5C21.4 15.5 22.5 16.4 22.5 17.5C22.5 18.6 21.4 19.5 20 19.5C18.6 19.5 17.5 20.4 17.5 21.5C17.5 22.6 18.6 23.5 20 23.5C21.4 23.5 22.5 22.6 22.5 21.5" 
        stroke="white" stroke-width="1.5" stroke-linecap="round" fill="none"/>
  
  <!-- Sync arrows (small) -->
  <path d="M30 18L32 20L30 22" stroke="url(#logoGradient)" stroke-width="1.5" stroke-linecap="round" stroke-linejoin="round" fill="none"/>
  <path d="M10 22L8 20L10 18" stroke="url(#logoGradient)" stroke-width="1.5" stroke-linecap="round" stroke-linejoin="round" fill="none"/>
</svg>
